<svg class="huey-eval-pulse-stack" fill="currentColor" font-family="system-ui, sans-serif" font-size="10" text-anchor="middle" width="980" height="756" viewBox="0 0 980 756" style="background: rgb(246, 245, 242); color: rgb(38, 35, 31); font-family: Inter, Arial, sans-serif;" xmlns="http://www.w3.org/2000/svg" role="img" aria-labelledby="title desc"><title id="title">Huemiliator eval pulse stacked bars</title><desc id="desc">Stacked horizontal bars for each Beta 1.0 eval pulse, with anchor, counted seam, and excluded noise row counts.</desc><style>:where(.huey-eval-pulse-stack) {
  --plot-background: white;
  display: block;
  height: auto;
  height: intrinsic;
  max-width: 100%;
}
:where(.huey-eval-pulse-stack text),
:where(.huey-eval-pulse-stack tspan) {
  white-space: pre;
}</style><g aria-label="y-axis tick" aria-hidden="true" fill="none" stroke="currentColor" transform="translate(0,10)"><path transform="translate(118,60)" d="M0,0L-6,0"></path><path transform="translate(118,82)" d="M0,0L-6,0"></path><path transform="translate(118,104)" d="M0,0L-6,0"></path><path transform="translate(118,126)" d="M0,0L-6,0"></path><path transform="translate(118,148)" d="M0,0L-6,0"></path><path transform="translate(118,170)" d="M0,0L-6,0"></path><path transform="translate(118,192)" d="M0,0L-6,0"></path><path transform="translate(118,214)" d="M0,0L-6,0"></path><path transform="translate(118,236)" d="M0,0L-6,0"></path><path transform="translate(118,258)" d="M0,0L-6,0"></path><path transform="translate(118,280)" d="M0,0L-6,0"></path><path transform="translate(118,302)" d="M0,0L-6,0"></path><path transform="translate(118,324)" d="M0,0L-6,0"></path><path transform="translate(118,346)" d="M0,0L-6,0"></path><path transform="translate(118,368)" d="M0,0L-6,0"></path><path transform="translate(118,390)" d="M0,0L-6,0"></path><path transform="translate(118,412)" d="M0,0L-6,0"></path><path transform="translate(118,434)" d="M0,0L-6,0"></path><path transform="translate(118,456)" d="M0,0L-6,0"></path><path transform="translate(118,478)" d="M0,0L-6,0"></path><path transform="translate(118,500)" d="M0,0L-6,0"></path><path transform="translate(118,522)" d="M0,0L-6,0"></path><path transform="translate(118,544)" d="M0,0L-6,0"></path><path transform="translate(118,566)" d="M0,0L-6,0"></path><path transform="translate(118,588)" d="M0,0L-6,0"></path><path transform="translate(118,610)" d="M0,0L-6,0"></path><path transform="translate(118,632)" d="M0,0L-6,0"></path><path transform="translate(118,654)" d="M0,0L-6,0"></path><path transform="translate(118,676)" d="M0,0L-6,0"></path></g><g aria-label="y-axis tick label" text-anchor="end" transform="translate(-9,10)"><text y="0.32em" transform="translate(118,60)">P01 red</text><text y="0.32em" transform="translate(118,82)">P02 red</text><text y="0.32em" transform="translate(118,104)">P03 yellow</text><text y="0.32em" transform="translate(118,126)">P04 yellow</text><text y="0.32em" transform="translate(118,148)">P05 yellow</text><text y="0.32em" transform="translate(118,170)">P06 yellow</text><text y="0.32em" transform="translate(118,192)">P07 green</text><text y="0.32em" transform="translate(118,214)">P08 green</text><text y="0.32em" transform="translate(118,236)">P09 blue</text><text y="0.32em" transform="translate(118,258)">P10 blue</text><text y="0.32em" transform="translate(118,280)">P11 blue</text><text y="0.32em" transform="translate(118,302)">P12 purple</text><text y="0.32em" transform="translate(118,324)">P13 purple</text><text y="0.32em" transform="translate(118,346)">P14 pink</text><text y="0.32em" transform="translate(118,368)">P15 pink</text><text y="0.32em" transform="translate(118,390)">P16 orange</text><text y="0.32em" transform="translate(118,412)">P17 orange</text><text y="0.32em" transform="translate(118,434)">P18 orange</text><text y="0.32em" transform="translate(118,456)">P19 orange</text><text y="0.32em" transform="translate(118,478)">P20 orange</text><text y="0.32em" transform="translate(118,500)">P21 orange</text><text y="0.32em" transform="translate(118,522)">P22 brown</text><text y="0.32em" transform="translate(118,544)">P23 brown</text><text y="0.32em" transform="translate(118,566)">P24 brown</text><text y="0.32em" transform="translate(118,588)">P25 neutral</text><text y="0.32em" transform="translate(118,610)">P26 neutral</text><text y="0.32em" transform="translate(118,632)">P27 neutral</text><text y="0.32em" transform="translate(118,654)">P28 neutral</text><text y="0.32em" transform="translate(118,676)">P29 neutral live</text></g><g aria-label="x-grid" aria-hidden="true" stroke="currentColor" stroke-opacity="0.1"><line x1="118" x2="118" y1="44" y2="712"></line><line x1="394.6666666666667" x2="394.6666666666667" y1="44" y2="712"></line><line x1="671.3333333333334" x2="671.3333333333334" y1="44" y2="712"></line><line x1="948" x2="948" y1="44" y2="712"></line></g><g aria-label="x-axis tick" aria-hidden="true" fill="none" stroke="currentColor"><path transform="translate(118,712)" d="M0,0L0,6"></path><path transform="translate(394.6666666666667,712)" d="M0,0L0,6"></path><path transform="translate(671.3333333333334,712)" d="M0,0L0,6"></path><path transform="translate(948,712)" d="M0,0L0,6"></path></g><g aria-label="x-axis tick label" font-variant="tabular-nums" transform="translate(0,9)"><text y="0.71em" transform="translate(118,712)">0</text><text y="0.71em" transform="translate(394.6666666666667,712)">5</text><text y="0.71em" transform="translate(671.3333333333334,712)">10</text><text y="0.71em" transform="translate(948,712)">15</text></g><g aria-label="x-axis label" text-anchor="end" transform="translate(29,41)"><text transform="translate(948,712)">rows in pulse →</text></g><g aria-label="rule" stroke="currentColor"><line x1="118" x2="118" y1="44" y2="712"></line></g><g aria-label="rect"><rect x="118" y="63" width="608.6666666666666" height="14" rx="2" fill="#287a68"><title>P01 red
anchor: 11
rows 19692..19706</title></rect><rect x="726.6666666666666" y="63" width="221.33333333333337" height="14" rx="2" fill="#c34f4d"><title>P01 red
counted seam: 4
rows 19692..19706</title></rect><rect x="948" y="63" width="0" height="14" rx="2" fill="#8e8378"><title>P01 red
excluded noise: 0
rows 19692..19706</title></rect><rect x="118" y="85" width="553.3333333333334" height="14" rx="2" fill="#287a68"><title>P02 red
anchor: 10
rows 19707..19721</title></rect><rect x="671.3333333333334" y="85" width="276.66666666666663" height="14" rx="2" fill="#c34f4d"><title>P02 red
counted seam: 5
rows 19707..19721</title></rect><rect x="948" y="85" width="0" height="14" rx="2" fill="#8e8378"><title>P02 red
excluded noise: 0
rows 19707..19721</title></rect><rect x="118" y="107" width="498" height="14" rx="2" fill="#287a68"><title>P03 yellow
anchor: 9
rows 19722..19736</title></rect><rect x="616" y="107" width="332" height="14" rx="2" fill="#c34f4d"><title>P03 yellow
counted seam: 6
rows 19722..19736</title></rect><rect x="948" y="107" width="0" height="14" rx="2" fill="#8e8378"><title>P03 yellow
excluded noise: 0
rows 19722..19736</title></rect><rect x="118" y="129" width="276.6666666666667" height="14" rx="2" fill="#287a68"><title>P04 yellow
anchor: 5
rows 19737..19751</title></rect><rect x="394.6666666666667" y="129" width="553.3333333333333" height="14" rx="2" fill="#c34f4d"><title>P04 yellow
counted seam: 10
rows 19737..19751</title></rect><rect x="948" y="129" width="0" height="14" rx="2" fill="#8e8378"><title>P04 yellow
excluded noise: 0
rows 19737..19751</title></rect><rect x="118" y="151" width="553.3333333333334" height="14" rx="2" fill="#287a68"><title>P05 yellow
anchor: 10
rows 19752..19766</title></rect><rect x="671.3333333333334" y="151" width="276.66666666666663" height="14" rx="2" fill="#c34f4d"><title>P05 yellow
counted seam: 5
rows 19752..19766</title></rect><rect x="948" y="151" width="0" height="14" rx="2" fill="#8e8378"><title>P05 yellow
excluded noise: 0
rows 19752..19766</title></rect><rect x="118" y="173" width="830" height="14" rx="2" fill="#287a68"><title>P06 yellow
anchor: 15
rows 19767..19781</title></rect><rect x="948" y="173" width="0" height="14" rx="2" fill="#c34f4d"><title>P06 yellow
counted seam: 0
rows 19767..19781</title></rect><rect x="948" y="173" width="0" height="14" rx="2" fill="#8e8378"><title>P06 yellow
excluded noise: 0
rows 19767..19781</title></rect><rect x="118" y="195" width="830" height="14" rx="2" fill="#287a68"><title>P07 green
anchor: 15
rows 19782..19796</title></rect><rect x="948" y="195" width="0" height="14" rx="2" fill="#c34f4d"><title>P07 green
counted seam: 0
rows 19782..19796</title></rect><rect x="948" y="195" width="0" height="14" rx="2" fill="#8e8378"><title>P07 green
excluded noise: 0
rows 19782..19796</title></rect><rect x="118" y="217" width="830" height="14" rx="2" fill="#287a68"><title>P08 green
anchor: 15
rows 19797..19811</title></rect><rect x="948" y="217" width="0" height="14" rx="2" fill="#c34f4d"><title>P08 green
counted seam: 0
rows 19797..19811</title></rect><rect x="948" y="217" width="0" height="14" rx="2" fill="#8e8378"><title>P08 green
excluded noise: 0
rows 19797..19811</title></rect><rect x="118" y="239" width="553.3333333333334" height="14" rx="2" fill="#287a68"><title>P09 blue
anchor: 10
rows 19812..19826</title></rect><rect x="671.3333333333334" y="239" width="276.66666666666663" height="14" rx="2" fill="#c34f4d"><title>P09 blue
counted seam: 5
rows 19812..19826</title></rect><rect x="948" y="239" width="0" height="14" rx="2" fill="#8e8378"><title>P09 blue
excluded noise: 0
rows 19812..19826</title></rect><rect x="118" y="261" width="553.3333333333334" height="14" rx="2" fill="#287a68"><title>P10 blue
anchor: 10
rows 19827..19841</title></rect><rect x="671.3333333333334" y="261" width="276.66666666666663" height="14" rx="2" fill="#c34f4d"><title>P10 blue
counted seam: 5
rows 19827..19841</title></rect><rect x="948" y="261" width="0" height="14" rx="2" fill="#8e8378"><title>P10 blue
excluded noise: 0
rows 19827..19841</title></rect><rect x="118" y="283" width="774.6666666666667" height="14" rx="2" fill="#287a68"><title>P11 blue
anchor: 14
rows 19842..19856</title></rect><rect x="892.6666666666667" y="283" width="55.33333333333326" height="14" rx="2" fill="#c34f4d"><title>P11 blue
counted seam: 1
rows 19842..19856</title></rect><rect x="948" y="283" width="0" height="14" rx="2" fill="#8e8378"><title>P11 blue
excluded noise: 0
rows 19842..19856</title></rect><rect x="118" y="305" width="830" height="14" rx="2" fill="#287a68"><title>P12 purple
anchor: 15
rows 19857..19871</title></rect><rect x="948" y="305" width="0" height="14" rx="2" fill="#c34f4d"><title>P12 purple
counted seam: 0
rows 19857..19871</title></rect><rect x="948" y="305" width="0" height="14" rx="2" fill="#8e8378"><title>P12 purple
excluded noise: 0
rows 19857..19871</title></rect><rect x="118" y="327" width="830" height="14" rx="2" fill="#287a68"><title>P13 purple
anchor: 15
rows 19872..19886</title></rect><rect x="948" y="327" width="0" height="14" rx="2" fill="#c34f4d"><title>P13 purple
counted seam: 0
rows 19872..19886</title></rect><rect x="948" y="327" width="0" height="14" rx="2" fill="#8e8378"><title>P13 purple
excluded noise: 0
rows 19872..19886</title></rect><rect x="118" y="349" width="498" height="14" rx="2" fill="#287a68"><title>P14 pink
anchor: 9
rows 19887..19901</title></rect><rect x="616" y="349" width="332" height="14" rx="2" fill="#c34f4d"><title>P14 pink
counted seam: 6
rows 19887..19901</title></rect><rect x="948" y="349" width="0" height="14" rx="2" fill="#8e8378"><title>P14 pink
excluded noise: 0
rows 19887..19901</title></rect><rect x="118" y="371" width="830" height="14" rx="2" fill="#287a68"><title>P15 pink
anchor: 15
rows 19902..19916</title></rect><rect x="948" y="371" width="0" height="14" rx="2" fill="#c34f4d"><title>P15 pink
counted seam: 0
rows 19902..19916</title></rect><rect x="948" y="371" width="0" height="14" rx="2" fill="#8e8378"><title>P15 pink
excluded noise: 0
rows 19902..19916</title></rect><rect x="118" y="393" width="498" height="14" rx="2" fill="#287a68"><title>P16 orange
anchor: 9
rows 19917..19931</title></rect><rect x="616" y="393" width="332" height="14" rx="2" fill="#c34f4d"><title>P16 orange
counted seam: 6
rows 19917..19931</title></rect><rect x="948" y="393" width="0" height="14" rx="2" fill="#8e8378"><title>P16 orange
excluded noise: 0
rows 19917..19931</title></rect><rect x="118" y="415" width="608.6666666666666" height="14" rx="2" fill="#287a68"><title>P17 orange
anchor: 11
rows 19932..19946</title></rect><rect x="726.6666666666666" y="415" width="221.33333333333337" height="14" rx="2" fill="#c34f4d"><title>P17 orange
counted seam: 4
rows 19932..19946</title></rect><rect x="948" y="415" width="0" height="14" rx="2" fill="#8e8378"><title>P17 orange
excluded noise: 0
rows 19932..19946</title></rect><rect x="118" y="437" width="553.3333333333334" height="14" rx="2" fill="#287a68"><title>P18 orange
anchor: 10
rows 19947..19961</title></rect><rect x="671.3333333333334" y="437" width="276.66666666666663" height="14" rx="2" fill="#c34f4d"><title>P18 orange
counted seam: 5
rows 19947..19961</title></rect><rect x="948" y="437" width="0" height="14" rx="2" fill="#8e8378"><title>P18 orange
excluded noise: 0
rows 19947..19961</title></rect><rect x="118" y="459" width="387.33333333333337" height="14" rx="2" fill="#287a68"><title>P19 orange
anchor: 7
rows 19962..19976</title></rect><rect x="505.33333333333337" y="459" width="442.66666666666663" height="14" rx="2" fill="#c34f4d"><title>P19 orange
counted seam: 8
rows 19962..19976</title></rect><rect x="948" y="459" width="0" height="14" rx="2" fill="#8e8378"><title>P19 orange
excluded noise: 0
rows 19962..19976</title></rect><rect x="118" y="481" width="830" height="14" rx="2" fill="#287a68"><title>P20 orange
anchor: 15
rows 19977..19991</title></rect><rect x="948" y="481" width="0" height="14" rx="2" fill="#c34f4d"><title>P20 orange
counted seam: 0
rows 19977..19991</title></rect><rect x="948" y="481" width="0" height="14" rx="2" fill="#8e8378"><title>P20 orange
excluded noise: 0
rows 19977..19991</title></rect><rect x="118" y="503" width="830" height="14" rx="2" fill="#287a68"><title>P21 orange
anchor: 15
rows 19992..20006</title></rect><rect x="948" y="503" width="0" height="14" rx="2" fill="#c34f4d"><title>P21 orange
counted seam: 0
rows 19992..20006</title></rect><rect x="948" y="503" width="0" height="14" rx="2" fill="#8e8378"><title>P21 orange
excluded noise: 0
rows 19992..20006</title></rect><rect x="118" y="525" width="830" height="14" rx="2" fill="#287a68"><title>P22 brown
anchor: 15
rows 20007..20021</title></rect><rect x="948" y="525" width="0" height="14" rx="2" fill="#c34f4d"><title>P22 brown
counted seam: 0
rows 20007..20021</title></rect><rect x="948" y="525" width="0" height="14" rx="2" fill="#8e8378"><title>P22 brown
excluded noise: 0
rows 20007..20021</title></rect><rect x="118" y="547" width="830" height="14" rx="2" fill="#287a68"><title>P23 brown
anchor: 15
rows 20022..20036</title></rect><rect x="948" y="547" width="0" height="14" rx="2" fill="#c34f4d"><title>P23 brown
counted seam: 0
rows 20022..20036</title></rect><rect x="948" y="547" width="0" height="14" rx="2" fill="#8e8378"><title>P23 brown
excluded noise: 0
rows 20022..20036</title></rect><rect x="118" y="569" width="830" height="14" rx="2" fill="#287a68"><title>P24 brown
anchor: 15
rows 20037..20051</title></rect><rect x="948" y="569" width="0" height="14" rx="2" fill="#c34f4d"><title>P24 brown
counted seam: 0
rows 20037..20051</title></rect><rect x="948" y="569" width="0" height="14" rx="2" fill="#8e8378"><title>P24 brown
excluded noise: 0
rows 20037..20051</title></rect><rect x="118" y="591" width="608.6666666666666" height="14" rx="2" fill="#287a68"><title>P25 neutral
anchor: 11
rows 20052..20066</title></rect><rect x="726.6666666666666" y="591" width="221.33333333333337" height="14" rx="2" fill="#c34f4d"><title>P25 neutral
counted seam: 4
rows 20052..20066</title></rect><rect x="948" y="591" width="0" height="14" rx="2" fill="#8e8378"><title>P25 neutral
excluded noise: 0
rows 20052..20066</title></rect><rect x="118" y="613" width="498" height="14" rx="2" fill="#287a68"><title>P26 neutral
anchor: 9
rows 20067..20081</title></rect><rect x="616" y="613" width="332" height="14" rx="2" fill="#c34f4d"><title>P26 neutral
counted seam: 6
rows 20067..20081</title></rect><rect x="948" y="613" width="0" height="14" rx="2" fill="#8e8378"><title>P26 neutral
excluded noise: 0
rows 20067..20081</title></rect><rect x="118" y="635" width="166" height="14" rx="2" fill="#287a68"><title>P27 neutral
anchor: 3
rows 20097..20099</title></rect><rect x="284" y="635" width="0" height="14" rx="2" fill="#c34f4d"><title>P27 neutral
counted seam: 0
rows 20097..20099</title></rect><rect x="284" y="635" width="0" height="14" rx="2" fill="#8e8378"><title>P27 neutral
excluded noise: 0
rows 20097..20099</title></rect><rect x="118" y="657" width="221.33333333333331" height="14" rx="2" fill="#287a68"><title>P28 neutral
anchor: 4
rows 20082..20096</title></rect><rect x="339.3333333333333" y="657" width="608.6666666666667" height="14" rx="2" fill="#c34f4d"><title>P28 neutral
counted seam: 11
rows 20082..20096</title></rect><rect x="948" y="657" width="0" height="14" rx="2" fill="#8e8378"><title>P28 neutral
excluded noise: 0
rows 20082..20096</title></rect><rect x="118" y="657" width="166" height="14" rx="2" fill="#287a68"><title>P28 neutral
anchor: 3
rows 20100..20102</title></rect><rect x="284" y="657" width="0" height="14" rx="2" fill="#c34f4d"><title>P28 neutral
counted seam: 0
rows 20100..20102</title></rect><rect x="284" y="657" width="0" height="14" rx="2" fill="#8e8378"><title>P28 neutral
excluded noise: 0
rows 20100..20102</title></rect><rect x="118" y="679" width="166" height="14" rx="2" fill="#287a68"><title>P29 neutral live
anchor: 3
rows 20103..20105</title></rect><rect x="284" y="679" width="0" height="14" rx="2" fill="#c34f4d"><title>P29 neutral live
counted seam: 0
rows 20103..20105</title></rect><rect x="284" y="679" width="0" height="14" rx="2" fill="#8e8378"><title>P29 neutral live
excluded noise: 0
rows 20103..20105</title></rect></g><g aria-label="text" fill="white" font-size="10" font-variant="tabular-nums" font-weight="700" transform="translate(0,10)"><text y="0.32em" transform="translate(422.3333333333333,60)">11</text><text y="0.32em" transform="translate(837.3333333333334,60)">4</text><text y="0.32em" transform="translate(394.6666666666667,82)">10</text><text y="0.32em" transform="translate(809.6666666666666,82)">5</text><text y="0.32em" transform="translate(367,104)">9</text><text y="0.32em" transform="translate(782.0000000000001,104)">6</text><text y="0.32em" transform="translate(256.33333333333337,126)">5</text><text y="0.32em" transform="translate(671.3333333333334,126)">10</text><text y="0.32em" transform="translate(394.6666666666667,148)">10</text><text y="0.32em" transform="translate(809.6666666666666,148)">5</text><text y="0.32em" transform="translate(533,170)">15</text><text y="0.32em" transform="translate(533,192)">15</text><text y="0.32em" transform="translate(533,214)">15</text><text y="0.32em" transform="translate(394.6666666666667,236)">10</text><text y="0.32em" transform="translate(809.6666666666666,236)">5</text><text y="0.32em" transform="translate(394.6666666666667,258)">10</text><text y="0.32em" transform="translate(809.6666666666666,258)">5</text><text y="0.32em" transform="translate(505.33333333333337,280)">14</text><text y="0.32em" transform="translate(533,302)">15</text><text y="0.32em" transform="translate(533,324)">15</text><text y="0.32em" transform="translate(367,346)">9</text><text y="0.32em" transform="translate(782.0000000000001,346)">6</text><text y="0.32em" transform="translate(533,368)">15</text><text y="0.32em" transform="translate(367,390)">9</text><text y="0.32em" transform="translate(782.0000000000001,390)">6</text><text y="0.32em" transform="translate(422.3333333333333,412)">11</text><text y="0.32em" transform="translate(837.3333333333334,412)">4</text><text y="0.32em" transform="translate(394.6666666666667,434)">10</text><text y="0.32em" transform="translate(809.6666666666666,434)">5</text><text y="0.32em" transform="translate(311.6666666666667,456)">7</text><text y="0.32em" transform="translate(726.6666666666666,456)">8</text><text y="0.32em" transform="translate(533,478)">15</text><text y="0.32em" transform="translate(533,500)">15</text><text y="0.32em" transform="translate(533,522)">15</text><text y="0.32em" transform="translate(533,544)">15</text><text y="0.32em" transform="translate(533,566)">15</text><text y="0.32em" transform="translate(422.3333333333333,588)">11</text><text y="0.32em" transform="translate(837.3333333333334,588)">4</text><text y="0.32em" transform="translate(367,610)">9</text><text y="0.32em" transform="translate(782.0000000000001,610)">6</text><text y="0.32em" transform="translate(228.66666666666666,654)">4</text><text y="0.32em" transform="translate(643.6666666666666,654)">11</text></g><g aria-label="legend" transform="translate(118 18)"><rect x="0" y="0" width="12" height="12" rx="2" fill="#287a68"></rect><text x="18" y="10" font-size="12" fill="#26231f">anchor</text><rect x="120" y="0" width="12" height="12" rx="2" fill="#c34f4d"></rect><text x="138" y="10" font-size="12" fill="#26231f">counted seam</text><rect x="240" y="0" width="12" height="12" rx="2" fill="#8e8378"></rect><text x="258" y="10" font-size="12" fill="#26231f">excluded noise</text></g></svg>
